<?xml version="1.0" encoding="UTF-8"?>
<svg version="1.1" xmlns="http://www.w3.org/2000/svg" width="512" height="512">
<path d="M0 0 C1.07037632 -0.00424107 1.07037632 -0.00424107 2.1623764 -0.00856781 C5.94842381 -0.0234785 9.73443401 -0.0327558 13.52050781 -0.03710938 C16.60005705 -0.04146951 19.67932225 -0.05527639 22.75878906 -0.078125 C63.56188545 -0.37471002 101.93532301 6.11718989 138.921875 24.203125 C139.9739917 24.71480225 139.9739917 24.71480225 141.04736328 25.23681641 C161.24198362 35.18355875 179.79092959 48.23977307 196.16796875 63.66015625 C198.10443985 65.44830191 200.03054943 67.13708384 202.06640625 68.80078125 C204.35959722 70.73007324 206.26047349 72.54450319 208.171875 74.828125 C210.11313392 77.11694556 212.06559924 79.35446713 214.1328125 81.53125 C245.62869099 114.75991145 265.93877751 160.20174483 272.921875 205.203125 C273.10516357 206.29077148 273.28845215 207.37841797 273.47729492 208.49902344 C275.52779445 222.67140633 275.26117965 236.98744375 275.23754883 251.27490234 C275.23292733 254.29979358 275.23981205 257.32428183 275.25805664 260.34912109 C275.38981069 282.41341607 274.70372027 304.04297156 269.296875 325.578125 C268.91619873 327.11436523 268.91619873 327.11436523 268.52783203 328.68164062 C258.44782151 367.80807579 239.21901144 404.24379378 211.359375 433.58984375 C209.6041403 435.47165787 207.96000954 437.3444618 206.3359375 439.33203125 C204.40203743 441.63205803 202.58637135 443.53680647 200.296875 445.453125 C198.00805444 447.39438392 195.77053287 449.34684924 193.59375 451.4140625 C160.36481088 482.91020418 114.92340457 503.21944312 69.921875 510.203125 C68.29149292 510.47805786 68.29149292 510.47805786 66.62817383 510.75854492 C52.43753485 512.81260914 38.10115024 512.54242784 23.79516602 512.51879883 C20.76343933 512.51417371 17.73211438 512.52107555 14.70043945 512.53930664 C-25.93989839 512.78140112 -64.24999055 506.21159603 -101.078125 488.203125 C-101.77953613 487.86200684 -102.48094727 487.52088867 -103.20361328 487.16943359 C-124.03135594 476.91085055 -143.31247549 463.26209778 -160.078125 447.203125 C-160.76036133 446.5534375 -161.44259766 445.90375 -162.14550781 445.234375 C-173.22721123 434.61538294 -183.25638654 423.77087034 -192.078125 411.203125 C-192.52446289 410.57486816 -192.97080078 409.94661133 -193.43066406 409.29931641 C-200.43035619 399.38352023 -206.45331581 388.95149831 -212.078125 378.203125 C-212.3987793 377.59065918 -212.71943359 376.97819336 -213.04980469 376.34716797 C-221.35583295 360.19253176 -227.32005417 342.66736488 -231.453125 325.015625 C-231.67943604 324.05744873 -231.90574707 323.09927246 -232.13891602 322.11206055 C-232.86405456 318.81966468 -233.48565279 315.52210288 -234.078125 312.203125 C-234.2094281 311.4902533 -234.3407312 310.77738159 -234.47601318 310.04290771 C-237.40411753 293.6367164 -237.54567808 277.3028988 -237.46923828 260.69921875 C-237.45214708 256.95461794 -237.4623172 253.21065682 -237.47955322 249.4660778 C-237.54455225 232.84622595 -237.12461396 216.60036324 -234.078125 200.203125 C-233.73370361 198.32318848 -233.73370361 198.32318848 -233.38232422 196.40527344 C-232.75993656 193.27730603 -232.07076436 190.17952598 -231.328125 187.078125 C-231.07208496 185.99466797 -230.81604492 184.91121094 -230.55224609 183.79492188 C-220.85754301 144.08111708 -200.35530598 106.72464621 -172.078125 77.203125 C-171.4284375 76.52088867 -170.77875 75.83865234 -170.109375 75.13574219 C-159.49038294 64.05403877 -148.64587034 54.02486346 -136.078125 45.203125 C-135.44986816 44.75678711 -134.82161133 44.31044922 -134.17431641 43.85058594 C-124.25852023 36.85089381 -113.82649831 30.82793419 -103.078125 25.203125 C-102.46565918 24.8824707 -101.85319336 24.56181641 -101.22216797 24.23144531 C-70.0758754 8.21734367 -34.899977 0.09471733 0 0 Z " fill="#7586C3" transform="translate(237.078125,-0.203125)"/>
<path d="M0 0 C9.9 0 19.8 0 30 0 C30 0.66 30 1.32 30 2 C31.7325 2.061875 31.7325 2.061875 33.5 2.125 C50.09958578 3.98688087 66.68982869 13.7590268 77.1015625 26.58984375 C77.72804688 27.38519531 78.35453125 28.18054688 79 29 C79.99755801 30.00243604 80.99721062 31.00279719 82 32 C89.60845837 41.46883377 91.37105811 54.29733851 93 66 C93.71285156 66.17015625 94.42570313 66.3403125 95.16015625 66.515625 C106.00778974 69.26038287 112.41061027 73.09956366 118.64453125 82.47265625 C120.63664134 87.65673524 120.47391566 92.55711441 120.4375 98.0625 C120.45748047 99.13822266 120.47746094 100.21394531 120.49804688 101.32226562 C120.49315518 109.21257527 120.49315518 109.21257527 118.1015625 113.03125 C117.06128906 114.00578125 117.06128906 114.00578125 116 115 C115.30670354 116.14233545 114.61850171 117.28779267 113.9375 118.4375 C110.56155063 123.24822785 105.34855631 125.82391077 100 128 C98.68 128 97.36 128 96 128 C96 128.66 96 129.32 96 130 C93.03 130 90.06 130 87 130 C87.02356567 131.50228149 87.02356567 131.50228149 87.04760742 133.03491211 C87.10292391 136.83886295 87.13670967 140.64278045 87.16479492 144.44702148 C87.17965472 146.07696558 87.19994836 147.70687141 87.22631836 149.33666992 C87.44886869 163.47079796 87.32471039 178.83385019 80.375 191.5625 C80.03235107 192.21814941 79.68970215 192.87379883 79.33666992 193.54931641 C75.27581253 200.90921984 69.97213379 206.12388869 62 209 C64.31669752 210.54446501 66.24816746 211.58169002 68.75 212.6875 C77.52713128 217.13222644 82.50868681 224.53220912 86.21707153 233.55610657 C89.85517109 244.91235172 90.45613579 256.48643924 90.3984375 268.3046875 C90.40046725 269.80486186 90.40338608 271.30503525 90.40713501 272.8052063 C90.41150798 275.91613358 90.40528714 279.02679895 90.39111328 282.13769531 C90.37393377 286.09808362 90.3839494 290.05786561 90.40183067 294.01823235 C90.41272952 297.10342897 90.40919594 300.18848432 90.4014473 303.27368546 C90.39946675 304.73353271 90.40182778 306.19339341 90.40888596 307.65322495 C90.46577295 322.70219475 87.38641129 335.53870549 76.8125 346.8125 C47.19559867 374.35966779 -20.38702462 360 -46 360 C-46 283.44 -46 206.88 -46 128 C-46.99 128.66 -47.98 129.32 -49 130 C-51.6112235 130.22365318 -54.07778464 130.33185991 -56.6875 130.3125 C-57.40631348 130.31048584 -58.12512695 130.30847168 -58.86572266 130.30639648 C-65.20910926 130.18631651 -69.40318598 128.79840701 -75 126 C-75 125.34 -75 124.68 -75 124 C-75.58523437 123.91234375 -76.17046875 123.8246875 -76.7734375 123.734375 C-80.97481643 122.34865704 -83.42608331 118.45138829 -86 115 C-87.375 112.0625 -87.375 112.0625 -88 110 C-88.33 109.67 -88.66 109.34 -89 109 C-89.09949077 107.24314326 -89.1308026 105.48232667 -89.1328125 103.72265625 C-89.13410156 102.65208984 -89.13539063 101.58152344 -89.13671875 100.47851562 C-89.13285156 99.35123047 -89.12898437 98.22394531 -89.125 97.0625 C-89.12886719 95.93908203 -89.13273438 94.81566406 -89.13671875 93.65820312 C-89.13542969 92.58634766 -89.13414062 91.51449219 -89.1328125 90.41015625 C-89.13168457 89.42152588 -89.13055664 88.43289551 -89.12939453 87.41430664 C-89 85 -89 85 -88 83 C-87.34 83 -86.68 83 -86 83 C-85.90847656 82.26007813 -85.81695312 81.52015625 -85.72265625 80.7578125 C-84.45211765 75.90916247 -80.82114613 73.05824369 -77 70 C-72.28281444 67.38231938 -67.31204772 66.5533383 -62 66 C-61.83564453 64.78376953 -61.83564453 64.78376953 -61.66796875 63.54296875 C-60.61303287 56.17557101 -59.14245434 49.12723145 -57 42 C-56.34 42 -55.68 42 -55 42 C-54.690625 40.741875 -54.38125 39.48375 -54.0625 38.1875 C-49.25833803 23.9537736 -34.0375174 12.86442609 -21.19140625 6.0390625 C-14.57265567 3.16382031 -7.10763904 2.78665276 0 2 C0 1.34 0 0.68 0 0 Z " fill="#010202" transform="translate(234,48)"/>
<path d="M0 0 C60.24528302 0 60.24528302 0 68.9375 7.3125 C75.12900111 14.24461129 78.21767703 21.71298874 78.32226562 31.04003906 C78.33716034 32.05601418 78.33716034 32.05601418 78.35235596 33.09251404 C78.38138818 35.31692686 78.39516761 37.54105443 78.40625 39.765625 C78.41473213 40.91361698 78.41473213 40.91361698 78.42338562 42.08480072 C78.45328683 46.13581198 78.47179709 50.18668235 78.48046875 54.23779297 C78.49142058 58.39837332 78.53945766 62.55763877 78.59641266 66.71780777 C78.63387139 69.9385542 78.64408737 73.15899046 78.6471405 76.37993622 C78.65314957 77.91242401 78.66905668 79.44490925 78.69551086 80.97718048 C78.84450746 90.27131475 78.27588753 97.65785599 72 105 C69.33203125 107.03515625 69.33203125 107.03515625 66.8125 108.0625 C65.97332031 108.42472656 65.13414062 108.78695312 64.26953125 109.16015625 C60.35333821 110.60934989 57.4152454 111.12242057 53.2434082 111.11352539 C51.44716003 111.11334412 51.44716003 111.11334412 49.61462402 111.11315918 C48.35605591 111.10804321 47.09748779 111.10292725 45.80078125 111.09765625 C44.64396851 111.09664917 43.48715576 111.09564209 42.29528809 111.09460449 C37.967682 111.08936646 33.64009002 111.07540522 29.3125 111.0625 C19.639375 111.041875 9.96625 111.02125 0 111 C0 74.37 0 37.74 0 0 Z " fill="#7B7BBA" transform="translate(217,270)"/>
<path d="M0 0 C8.848125 -0.0825 17.69625 -0.165 26.8125 -0.25 C30.96936401 -0.30462402 30.96936401 -0.30462402 35.21020508 -0.36035156 C37.43830595 -0.37204804 39.66641546 -0.38223759 41.89453125 -0.390625 C43.59144104 -0.4213208 43.59144104 -0.4213208 45.32263184 -0.45263672 C53.29789768 -0.45609333 61.63344881 0.32641784 67.97615051 5.66253662 C75.03210377 13.01304432 75.45884454 21.72152054 75.43359375 31.390625 C75.4388356 32.57162781 75.44407745 33.75263062 75.44947815 34.96942139 C75.45588103 37.46056332 75.45458393 39.95173556 75.44604492 42.44287109 C75.43755793 46.22419061 75.46628682 50.00398653 75.49804688 53.78515625 C75.49965984 56.21614539 75.49907954 58.64713716 75.49609375 61.078125 C75.50732773 62.194151 75.51856171 63.310177 75.53013611 64.46002197 C75.44811442 73.85408131 73.64420406 84.01924074 67.57675171 91.54853821 C60.36036838 98.1915021 52.12994148 98.6949667 42.7734375 98.48828125 C41.68264893 98.48324585 40.59186035 98.47821045 39.46801758 98.47302246 C35.43674007 98.44708207 31.40584051 98.37727686 27.375 98.3125 C18.34125 98.209375 9.3075 98.10625 0 98 C0 65.66 0 33.32 0 0 Z " fill="#7293CB" transform="translate(217,145)"/>
<path d="M0 0 C0.68737244 0.00204437 1.37474487 0.00408875 2.08294678 0.00619507 C14.51665954 0.06658459 26.15183383 0.68473509 36.9375 7.4375 C39.12880534 8.13329454 39.12880534 8.13329454 40.9375 8.4375 C40.9375 9.0975 40.9375 9.7575 40.9375 10.4375 C41.63875 10.664375 42.34 10.89125 43.0625 11.125 C53.50530072 15.89236555 60.71956144 26.78826292 65.0625 37.02734375 C66.99593003 42.35290773 68.10097919 47.80478329 66.9375 53.4375 C65.29280109 55.03053298 63.62359637 55.96593414 61.62890625 57.078125 C58.81894023 59.33648106 58.65982754 62.21869177 58.12890625 65.64453125 C58.06574219 66.23621094 58.00257813 66.82789062 57.9375 67.4375 C54.311977 66.86404293 51.67481608 65.8782527 48.5 64.0625 C36.95639055 58.19558994 24.73086845 58.01078192 12.08421326 58.05737495 C9.34240871 58.06662155 6.60126826 58.05611383 3.85949707 58.04075623 C-3.92373903 58.00099835 -11.70691342 57.99946429 -19.49023438 58.00170898 C-24.27867476 58.0017601 -29.06674768 57.98260244 -33.85508728 57.95237541 C-36.54853361 57.94158736 -39.24126936 57.95364862 -41.93469238 57.96620178 C-43.58732807 57.95729861 -45.23995801 57.94722466 -46.89257812 57.93579102 C-48.00542175 57.95040627 -48.00542175 57.95040627 -49.14074707 57.96531677 C-54.43780328 57.89230105 -57.03756781 56.620829 -61.0625 53.4375 C-61.46064698 40.29864968 -55.65007373 29.10762823 -47.1875 19.375 C-40.47109256 12.51437523 -32.85041572 7.27069141 -24.0625 3.4375 C-23.15975342 3.03567505 -23.15975342 3.03567505 -22.23876953 2.62573242 C-14.98018204 -0.19665401 -7.69221553 -0.06827274 0 0 Z " fill="#66A4D7" transform="translate(246.0625,60.5625)"/>
<path d="M0 0 C1.35282168 2.70564337 0.41095179 4.09032785 -0.45703125 6.8515625 C-1.29880506 10.18232218 -1.50086138 13.54224971 -1.75390625 16.9609375 C-2 19 -2 19 -3 20 C-5.33297433 20.04092937 -7.66705225 20.04241723 -10 20 C-6.25 18 -6.25 18 -4 18 C-4.12375 16.0509375 -4.12375 16.0509375 -4.25 14.0625 C-4.28410633 8.69075359 -2.47959766 4.6824545 0 0 Z " fill="#63809A" transform="translate(175,95)"/>
<path d="M0 0 C1.53166168 4.08443115 0.63081652 7.79455657 0 12 C-0.66 12 -1.32 12 -2 12 C-1.67 14.64 -1.34 17.28 -1 20 C-1.99 19.67 -2.98 19.34 -4 19 C-3.66944259 12.05829437 -3.24571282 6.20918975 0 0 Z " fill="#4F6476" transform="translate(189,95)"/>
<path d="M0 0 C1.36421031 2.72842061 0.87807211 4.60953318 0.5625 7.625 C0.46066406 8.62789062 0.35882813 9.63078125 0.25390625 10.6640625 C0.17011719 11.43492187 0.08632813 12.20578125 0 13 C-0.66 13 -1.32 13 -2 13 C-2 12.34 -2 11.68 -2 11 C-2.66 10.67 -3.32 10.34 -4 10 C-3.34 10 -2.68 10 -2 10 C-1.93941406 9.36191406 -1.87882812 8.72382812 -1.81640625 8.06640625 C-1.73261719 7.24011719 -1.64882813 6.41382812 -1.5625 5.5625 C-1.48128906 4.73878906 -1.40007812 3.91507812 -1.31640625 3.06640625 C-1 1 -1 1 0 0 Z " fill="#3C4A57" transform="translate(306,118)"/>
<path d="M0 0 C0.33 0 0.66 0 1 0 C1.042721 1.66611905 1.04063832 3.33382885 1 5 C0 6 0 6 -3.5625 6.0625 C-4.696875 6.041875 -5.83125 6.02125 -7 6 C-3.25 4 -3.25 4 -1 4 C-0.67 2.68 -0.34 1.36 0 0 Z " fill="#4A5C6C" transform="translate(172,109)"/>
</svg>
